<?xml version="1.0" encoding="utf-8"?>
<!-- Generator: Adobe Illustrator 17.0.0, SVG Export Plug-In . SVG Version: 6.00 Build 0)  -->
<!DOCTYPE svg PUBLIC "-//W3C//DTD SVG 1.0//EN" "http://www.w3.org/TR/2001/REC-SVG-20010904/DTD/svg10.dtd">
<svg version="1.0" id="Layer_1" xmlns="http://www.w3.org/2000/svg" xmlns:xlink="http://www.w3.org/1999/xlink" x="0px" y="0px"
	 width="766.484px" height="275.75px" viewBox="0 0 766.484 275.75" style="enable-background:new 0 0 766.484 275.75;"
	 xml:space="preserve">
<g>
	<g>
		<g>
			<path style="fill:#EDEDED;" d="M95.34,75.08c-2.318-5.855-5.563-11.033-9.705-15.514c-4.156-4.48-9.13-8.004-14.895-10.584
				c-5.763-2.564-12.161-3.863-19.191-3.863c-5.393,0-10.769,1.328-16.115,3.971c-5.347,2.643-9.472,6.273-12.379,10.926V1.145
				H1.517V139.73h21.538v-12.469c2.907,4.635,7.032,8.281,12.379,10.906c5.346,2.66,10.722,3.973,16.115,3.973
				c6.983,0,13.35-1.297,19.144-3.863c5.794-2.58,10.786-6.117,14.942-10.646c1.468-1.592,2.828-3.275,4.065-5.037
				c2.271-3.197,4.141-6.658,5.64-10.399c2.316-5.81,3.476-11.99,3.476-18.557C98.815,87.131,97.656,80.936,95.34,75.08z
				 M75.391,104.887c-1.265,3.584-3.09,6.691-5.47,9.334c-2.379,2.641-5.237,4.742-8.56,6.318
				c-3.307,1.592-6.999,2.381-11.062,2.381c-4.249,0-8.035-0.789-11.388-2.381c-3.337-1.576-6.211-3.678-8.56-6.318
				c-2.365-2.643-4.157-5.75-5.409-9.334c-1.267-3.568-1.886-7.324-1.886-11.248c0-4.004,0.619-7.774,1.886-11.311
				c0.417-1.189,0.897-2.318,1.453-3.4c1.067-2.164,2.379-4.109,3.956-5.871c2.349-2.643,5.223-4.76,8.56-6.336
				c3.354-1.592,7.139-2.363,11.388-2.363c4.141,0,7.833,0.771,11.124,2.363c3.291,1.576,6.119,3.693,8.498,6.336
				c2.38,2.643,4.205,5.748,5.47,9.316c0.48,1.359,0.867,2.734,1.144,4.143l0.015,0.016c0.479,2.303,0.711,4.666,0.711,7.107
				C77.261,97.562,76.644,101.318,75.391,104.887z"/>
			<path style="fill:#EDEDED;" d="M184.526,47.545v12.471c-2.889-4.637-7.016-8.283-12.362-10.941
				c-5.329-2.627-10.723-3.955-16.13-3.955c-6.954,0-13.335,1.299-19.13,3.863c-5.811,2.58-10.786,6.104-14.926,10.584
				c-4.156,4.48-7.401,9.658-9.719,15.561c-0.277,0.709-0.54,1.436-0.804,2.164c-1.777,5.236-2.673,10.693-2.673,16.348
				c0,6.566,1.16,12.746,3.477,18.557c2.317,5.795,5.562,10.941,9.719,15.451c0.587,0.635,1.19,1.252,1.808,1.854
				c3.754,3.633,8.112,6.568,13.072,8.777c5.764,2.566,12.146,3.863,19.177,3.863c5.407,0,10.801-1.312,16.13-3.973
				c5.346-2.625,9.473-6.271,12.362-10.906v12.469h21.571V47.545H184.526z M182.564,104.887c-1.329,3.584-3.167,6.691-5.517,9.334
				c-2.348,2.641-5.208,4.742-8.59,6.318c-3.386,1.592-7.109,2.381-11.173,2.381c-4.063,0-7.741-0.789-11.062-2.381
				c-3.321-1.576-6.164-3.678-8.561-6.318c-2.363-2.643-4.188-5.75-5.438-9.334c-1.267-3.568-1.886-7.324-1.886-11.248
				c0-4.004,0.619-7.774,1.886-11.311c1.25-3.539,3.075-6.629,5.438-9.271c2.397-2.643,5.24-4.76,8.561-6.336
				c3.321-1.592,6.999-2.363,11.062-2.363c4.064,0,7.788,0.771,11.173,2.363c3.382,1.576,6.243,3.693,8.59,6.32
				c2.35,2.658,4.188,5.764,5.517,9.332c1.313,3.57,1.962,7.34,1.962,11.266C184.526,97.562,183.878,101.318,182.564,104.887z"/>
			<path style="fill:#EDEDED;" d="M279.679,121.42c-2.256,0.154-4.234,0.232-5.981,0.232c-2.132,0-4.018-0.201-5.671-0.619
				c-1.636-0.432-3.043-1.266-4.233-2.533c-1.19-1.236-2.086-3.074-2.672-5.455c-0.573-2.395-0.866-5.547-0.866-9.486V65.516h21.167
				V47.545h-21.167V0h-21.541v47.545h-15.651v17.971h15.651v42.91c0,7.789,1.036,13.859,3.138,18.219
				c2.086,4.34,4.697,7.57,7.832,9.703c3.123,2.115,6.383,3.412,9.798,3.861c3.43,0.449,6.458,0.68,9.086,0.68
				c3.167,0,6.195-0.123,9.085-0.387c2.89-0.264,5.223-0.51,6.953-0.771v-18.943C283.572,121.049,281.934,121.25,279.679,121.42z"/>
			<path style="fill:#EDEDED;" d="M479.19,103.512c-1.39-2.75-3.26-5.115-5.639-7.078c-2.397-1.963-5.083-3.615-8.112-4.975
				c-3.028-1.344-6.119-2.596-9.271-3.754c-4.25-1.623-7.944-2.951-11.096-4.064c-3.136-1.096-5.778-2.117-7.895-3.121
				c-2.117-1.004-3.696-2.117-4.715-3.336c-1.035-1.223-1.546-2.828-1.546-4.822c0-3.354,1.283-5.873,3.865-7.572
				c2.562-1.715,5.671-2.549,9.332-2.549c5.269,0,9.039,1.266,11.311,3.83c2.287,2.551,3.429,6.014,3.429,10.354h20.969
				c0-4.496-0.926-8.684-2.766-12.514c-1.822-3.818-4.325-7.125-7.479-9.891c-3.15-2.781-6.859-4.961-11.139-6.535
				c-4.281-1.576-8.855-2.365-13.753-2.365c-4.774,0-9.238,0.557-13.382,1.715c-4.171,1.111-7.833,2.844-11,5.178
				c-3.169,2.332-5.672,5.129-7.542,8.42c-1.884,3.309-2.811,7.154-2.811,11.543c0,3.924,0.524,7.262,1.608,10.027
				c1.049,2.781,2.594,5.07,4.588,6.893c2.009,1.838,4.357,3.463,7.076,4.883c2.704,1.422,5.642,2.703,8.809,3.861
				c4.912,1.809,9.133,3.293,12.654,4.498c3.538,1.174,6.49,2.332,8.87,3.461c2.379,1.127,4.156,2.35,5.346,3.662
				c1.175,1.328,1.777,3.045,1.777,5.162c0,3.922-1.438,6.689-4.327,8.25c-2.904,1.576-6.443,2.365-10.709,2.365
				c-5.129,0-9.379-1.223-12.7-3.664c-3.337-2.455-5.021-6.705-5.021-12.762h-20.969c0,5.408,1.021,10.197,3.043,14.352
				c2.025,4.143,4.792,7.666,8.299,10.525c3.508,2.859,7.495,5.037,11.96,6.488c4.482,1.438,9.225,2.164,14.245,2.164
				c5.021,0,9.767-0.555,14.231-1.684c4.467-1.129,8.377-2.857,11.73-5.176c3.337-2.305,5.978-5.254,7.909-8.777
				c1.933-3.541,2.889-7.695,2.889-12.471C481.259,109.785,480.581,106.293,479.19,103.512z"/>
			<path style="fill:#EDEDED;" d="M583.721,47.545h-26.87l-33.81,40.762V1.158h-21.554V139.73h21.554V99.139l33.81,40.592h26.87
				l-38.366-46.094L583.721,47.545z"/>
			<path style="fill:#EDEDED;" d="M662.03,47.545v12.471c-2.905-4.637-7.03-8.283-12.361-10.941
				c-5.345-2.627-10.723-3.955-16.147-3.955c-6.954,0-13.335,1.297-19.115,3.863c-5.809,2.58-10.784,6.104-14.957,10.584
				c-4.14,4.48-7.369,9.658-9.703,15.559c-2.317,5.904-3.477,12.07-3.477,18.512c0,6.568,1.159,12.748,3.477,18.543
				c2.334,5.81,5.564,10.955,9.703,15.482c4.173,4.496,9.134,8.035,14.896,10.615c5.779,2.58,12.16,3.863,19.176,3.863
				c5.424,0,10.802-1.312,16.147-3.957c5.331-2.641,9.456-6.287,12.361-10.922v12.469h21.557V47.545H662.03z M660.052,104.887
				c-1.312,3.584-3.166,6.689-5.5,9.334c-2.349,2.641-5.223,4.742-8.607,6.318c-3.383,1.592-7.106,2.381-11.154,2.381
				c-4.05,0-7.757-0.789-11.065-2.381c-3.321-1.576-6.181-3.678-8.56-6.318c-2.38-2.645-4.202-5.75-5.454-9.334
				c-1.252-3.568-1.885-7.324-1.885-11.264c0-3.988,0.633-7.758,1.885-11.295c1.252-3.541,3.074-6.629,5.454-9.287
				c2.38-2.627,5.239-4.744,8.56-6.32c3.308-1.574,7.015-2.363,11.065-2.363c4.048,0,7.771,0.789,11.154,2.363
				c3.385,1.576,6.259,3.693,8.607,6.32c2.334,2.658,4.188,5.764,5.5,9.332c1.33,3.57,1.979,7.34,1.979,11.25
				C662.03,97.562,661.382,101.318,660.052,104.887z"/>
			<path style="fill:#EDEDED;" d="M743.694,25.357c0.894-1.947,2.037-3.416,3.43-4.344c1.374-0.926,2.935-1.467,4.619-1.59
				c1.715-0.125,3.445-0.201,5.177-0.201c1.746,0,3.399,0.139,4.989,0.4c1.562,0.264,3.107,0.572,4.575,0.959V2.428
				c-1.22-0.713-2.905-1.299-5.068-1.748c-2.149-0.447-4.62-0.68-7.387-0.68c-2.657,0-5.886,0.232-9.718,0.68
				c-3.817,0.449-7.494,1.838-11.018,4.141c-3.506,2.336-6.475,5.902-8.885,10.74c-2.425,4.82-3.63,11.65-3.63,20.488v11.496
				h-18.836v17.971h18.836v74.215h21.555V65.516h24.151V47.545h-24.151V33.623C742.333,30.086,742.781,27.336,743.694,25.357z"/>
		</g>
		<path style="fill:#EDEDED;" d="M357.227,169.629c-2.049,0-19.474-0.021-34.424-0.045v-42.621
			c2.949,5.074,7.047,8.889,12.296,11.486c5.239,2.607,11.344,3.912,18.303,3.912c6.828,0,12.538-1.152,17.206-3.453
			c4.669-2.301,8.351-5.369,11.037-9.238c2.29-3.475,3.857-7.387,4.713-11.717c0.843-4.318,1.282-9.697,1.282-16.121V46.047H365.7
			v48.607c0,4.033-0.33,7.791-0.987,11.309c-0.657,3.508-1.786,6.512-3.343,9.031c-1.579,2.49-3.66,4.482-6.258,5.963
			c-2.576,1.469-5.841,2.213-9.775,2.213c-7.684,0-13.35-2.729-17.021-8.176c-3.671-5.469-5.513-12.242-5.513-20.34V46.047h-21.941
			v123.516H0c4.603,7.125,7.222,10.664,15.541,14.742c6.072,3.012,15.936,3.154,22.116,3.154h263.205v28.848
			c0,0.514,0.065,4.699,0.076,5.184c1.535,30.236,26.545,54.26,57.144,54.26c12.319,0,20.791-1.83,32.096-9.596
			c9.793-6.727,21.802-21.219,21.802-44.105C411.98,169.562,365.943,169.629,357.227,169.629z M357.457,256.67
			c-19.015,0-34.435-15.289-34.621-34.248l-0.033-34.963h35.027c29.523,0,32.615,20.035,32.615,34.59
			C390.445,246.416,370.609,256.67,357.457,256.67z"/>
	</g>
</g>
</svg>
